#!OML:ASF F:\VICON\USERDATA\INSTALL\rory3\rory3.ASF
:FULLY-SPECIFIED
:DEGREES
145
root 0.463359 17.4182 -4.21487 -0.304711 -4.20297 -0.0664463
lowerback 6.15557 1.96412 1.18439
upperback 0.870415 2.72521 1.17923
thorax -2.55339 1.35022 0.324942
lowerneck -16.2494 -2.81725 -9.30232
upperneck 20.6038 -2.6651 5.17157
head 9.37958 -1.40296 2.99654
rclavicle -3.65267e-015 2.18663e-014
rhumerus -23.6448 -7.4134 -78.6589
rradius 35.6729
rwrist 5.16562
rhand -13.7892 20.1826
rfingers 7.12502
rthumb 12.3323 -9.43372
lclavicle -3.65267e-015 2.18663e-014
lhumerus -42.8485 16.9341 80.3775
lradius 19.9757
lwrist -20.3892
lhand -14.399 22.8559
lfingers 7.12502
lthumb 11.7444 52.5067
rfemur 3.13092 4.69342 23.2109
rtibia 52.698
rfoot 8.55635 -1.59514
rtoes -10.3539
lfemur -23.7401 0.179076 -21.5236
ltibia 24.953
lfoot 1.47864 -3.29186
ltoes -1.98938
146
root 0.478698 17.4479 -4.0051 -0.481064 -4.43139 0.420023
lowerback 6.11225 2.00383 0.723751
upperback 0.943998 2.74181 1.03301
thorax -2.46773 1.36266 0.433906
lowerneck -16.0945 -2.81403 -9.14869
upperneck 20.4196 -2.71677 5.18912
head 9.28814 -1.41256 2.96813
rclavicle -5.37216e-014 1.11319e-014
rhumerus -23.9611 -7.37324 -78.7465
rradius 35.7646
rwrist 5.17127
rhand -13.0062 18.8428
rfingers 7.12502
rthumb 13.0872 -10.7266
lclavicle -5.37216e-014 1.11319e-014
lhumerus -42.9196 16.5894 80.4959
lradius 20.472
lwrist -19.9489
lhand -13.5222 23.9294
lfingers 7.12502
lthumb 12.5898 53.5301
rfemur 1.67221 4.93155 22.5033
rtibia 55.2522
rfoot 11.62 -1.35687
rtoes -5.06564
lfemur -22.7689 0.100048 -22.1476
ltibia 25.1339
lfoot 0.434705 -2.65485
ltoes -1.414
147
root 0.488006 17.4687 -3.80774 -0.727351 -4.64709 0.912354
lowerback 6.42493 1.99458 0.216039
upperback 0.953277 2.69532 0.92259
thorax -2.6506 1.34307 0.596399
lowerneck -16.0108 -2.76827 -9.10859
upperneck 20.2614 -2.6612 5.15878
head 9.21225 -1.38589 2.95596
rclavicle 1.93318e-014 -3.18055e-015
rhumerus -24.0737 -7.25939 -78.8453
rradius 35.4782
rwrist 5.20245
rhand -12.0498 17.4313
rfingers 7.12502
rthumb 14.009 -12.0766
lclavicle 1.93318e-014 -3.18055e-015
lhumerus -42.9349 16.1858 80.7414
lradius 20.9138
lwrist -18.9622
lhand -13.8861 22.8784
lfingers 7.12502
lthumb 12.2389 52.5003
rfemur 0.271671 5.20923 21.8628
rtibia 57.8201
rfoot 14.5043 -1.53813
rtoes 0.762182
lfemur -21.7601 0.00590352 -22.761
ltibia 25.1793
lfoot -0.512573 -2.1306
ltoes -2.18366
148
root 0.493487 17.4823 -3.62499 -0.956353 -4.62559 1.40363
lowerback 6.72062 1.87926 -0.382069
upperback 1.1337 2.49821 0.896111
thorax -2.65185 1.24972 0.914353
lowerneck -16.477 -2.7123 -9.24711
upperneck 20.2472 -2.50952 5.19538
head 9.28371 -1.31603 3.00991
rclavicle 1.65488e-014 3.18055e-015
rhumerus -23.6831 -6.87148 -78.971
rradius 35.0318
rwrist 5.2049
rhand -12.2957 17.625
rfingers 7.12502
rthumb 13.7721 -11.8991
lclavicle 1.65488e-014 3.18055e-015
lhumerus -42.6592 15.8573 81.207
lradius 21.4451
lwrist -17.8689
lhand -15.0332 20.4621
lfingers 7.12502
lthumb 11.1328 50.1467
rfemur -1.22423 5.11109 21.2177
rtibia 60.3785
rfoot 16.7443 -1.85323
rtoes 5.01886
lfemur -20.8249 -0.346924 -23.3532
ltibia 25.1327
lfoot -1.10278 -1.82585
ltoes -1.9181
149
root 0.500954 17.5022 -3.43786 -1.04495 -4.54948 1.84076
lowerback 6.75134 1.7668 -0.898569
upperback 1.2502 2.30956 0.848676
thorax -2.56338 1.15923 1.17306
lowerneck -16.723 -2.6902 -9.30701
upperneck 20.2794 -2.42731 5.14453
head 9.3342 -1.28556 3.0127
rclavicle 1.43125e-014 -4.37326e-015
rhumerus -23.5735 -6.82157 -79.0309
rradius 34.7626
rwrist 5.45528
rhand -12.6691 18.484
rfingers 7.12502
rthumb 13.4121 -11.0642
lclavicle 1.43125e-014 -4.37326e-015
lhumerus -42.3697 15.3803 81.6276
lradius 21.7931
lwrist -16.9741
lhand -14.9438 21.7549
lfingers 7.12502
lthumb 11.219 51.4349
rfemur -2.84714 4.85432 20.5861
rtibia 62.798
rfoot 12.8391 -3.07594
rtoes -14.9231
lfemur -20.0181 -0.588313 -23.9439
ltibia 25.0701
lfoot -1.64133 -1.54451
ltoes -2.25654
150
root 0.50586 17.5192 -3.24071 -1.1966 -4.56157 2.27089
lowerback 6.82454 1.66438 -1.41874
upperback 1.28848 2.13432 0.814894
thorax -2.57729 1.07581 1.44428
lowerneck -16.7672 -2.628 -9.16326
upperneck 20.2838 -2.29844 4.8151
head 9.32877 -1.25043 2.89006
rclavicle 2.98177e-014 -1.98785e-015
rhumerus -23.5682 -6.44565 -79.1349
rradius 34.4047
rwrist 5.20244
rhand -12.6085 18.7682
rfingers 7.12502
rthumb 13.4706 -10.7762
lclavicle 2.98177e-014 -1.98785e-015
lhumerus -42.0878 15.147 81.8101
lradius 21.7183
lwrist -16.5467
lhand -13.9351 23.4902
lfingers 7.12502
lthumb 12.1917 53.115
rfemur -4.30941 4.60182 19.9649
rtibia 65.0496
rfoot 13.5331 -3.07187
rtoes -11.5144
lfemur -19.0434 -0.732665 -24.5198
ltibia 24.9078
lfoot -2.215 -1.12389
ltoes -2.25957
151
root 0.512823 17.5304 -3.04683 -1.38345 -4.44196 2.54406
lowerback 6.8426 1.51671 -1.68513
upperback 1.4357 1.91737 0.77345
thorax -2.43469 0.967374 1.57275
lowerneck -16.8944 -2.5583 -9.18064
upperneck 20.2061 -2.19041 4.84718
head 9.31699 -1.19536 2.91696
rclavicle -1.5704e-014 -5.1684e-015
rhumerus -23.3039 -6.22254 -79.2904
rradius 33.9086
rwrist 5.11715
rhand -12.7374 18.6825
rfingers 7.12502
rthumb 13.3463 -10.8701
lclavicle -1.5704e-014 -5.1684e-015
lhumerus -41.3396 15.0532 81.8521
lradius 21.1968
lwrist -16.6537
lhand -13.3539 23.8688
lfingers 7.12502
lthumb 12.752 53.4594
rfemur -5.69216 4.17148 19.5122
rtibia 67.0825
rfoot 13.7434 -3.19034
rtoes -3.33376
lfemur -18.0314 -0.893099 -24.9538
ltibia 24.7653
lfoot -2.91133 -0.863409
ltoes -1.96746
152
root 0.525515 17.5469 -2.85506 -1.54024 -4.41906 2.98357
lowerback 6.78484 1.44908 -2.0555
upperback 1.5313 1.79989 0.673625
thorax -2.3071 0.908929 1.69117
lowerneck -16.6222 -2.51092 -9.23227
upperneck 19.8653 -2.14532 4.9087
head 9.14629 -1.16919 2.94818
rclavicle 2.28602e-014 2.78299e-015
rhumerus -23.0428 -6.52676 -79.2802
rradius 33.1
rwrist 5.67925
rhand -13.1948 19.6538
rfingers 7.12502
rthumb 12.9054 -9.92715
lclavicle 2.28602e-014 2.78299e-015
lhumerus -40.8069 14.8117 81.9296
lradius 21.0298
lwrist -16.9485
lhand -12.7548 24.4171
lfingers 7.12502
lthumb 13.3295 53.9708
rfemur -7.16184 3.72256 18.778
rtibia 68.9443
rfoot 13.7782 -3.26821
rtoes 4.42782
lfemur -17.0584 -1.09716 -25.5579
ltibia 24.6754
lfoot -3.59084 -0.540331
ltoes -1.51297
153
root 0.533929 17.5605 -2.66272 -1.63159 -4.4717 3.09729
lowerback 6.86291 1.39468 -2.0805
upperback 1.4649 1.72204 0.608207
thorax -2.41426 0.871798 1.64201
lowerneck -16.3434 -2.40555 -8.98815
upperneck 19.8335 -2.0527 4.74212
head 9.07224 -1.12809 2.86147
rclavicle -1.54058e-015 -1.59028e-015
rhumerus -23.2243 -6.93127 -79.2911
rradius 32.6149
rwrist 6.44754
rhand -13.3688 20.2983
rfingers 7.12502
rthumb 12.7377 -9.29321
lclavicle -1.54058e-015 -1.59028e-015
lhumerus -40.5084 14.3252 81.961
lradius 21.1313
lwrist -16.9147
lhand -12.9158 23.9105
lfingers 7.12502
lthumb 13.1744 53.4743
rfemur -8.64536 3.32933 18.4857
rtibia 70.6018
rfoot 12.8659 -3.59678
rtoes 8.73529
lfemur -16.1521 -1.26621 -25.7801
ltibia 24.604
lfoot -4.17525 -0.115318
ltoes -1.50875
154
root 0.535147 17.5658 -2.48302 -1.62405 -4.33353 3.02667
lowerback 7.04559 1.22913 -2.06523
upperback 1.34231 1.5014 0.710841
thorax -2.63504 0.765432 1.75435
lowerneck -16.3001 -2.33564 -9.21186
upperneck 20.0431 -1.919 4.80331
head 9.12997 -1.08001 2.94008
rclavicle -8.24956e-015 -3.18055e-015
rhumerus -23.5946 -6.7523 -79.2726
rradius 32.4701
rwrist 6.68173
rhand -13.4466 19.6344
rfingers 7.12502
rthumb 12.6627 -9.96175
lclavicle -8.24956e-015 -3.18055e-015
lhumerus -40.1703 14.3448 81.888
lradius 20.9113
lwrist -17.1055
lhand -13.6203 23.4892
lfingers 7.12502
lthumb 12.4952 53.0956
rfemur -10.2558 2.87718 18.5238
rtibia 72.1047
rfoot 11.299 -4.34098
rtoes 10.3793
lfemur -15.3607 -1.41422 -25.7753
ltibia 24.3882
lfoot -4.6559 0.0425197
ltoes -1.47467
155
root 0.538686 17.5754 -2.30027 -1.56796 -4.29468 3.07619
lowerback 6.88646 1.12795 -2.09381
upperback 1.39822 1.36864 0.724499
thorax -2.48342 0.697516 1.80039
lowerneck -16.3249 -2.2895 -9.24664
upperneck 20.0045 -1.8454 4.81501
head 9.11587 -1.04617 2.95868
rclavicle 3.32964e-015 1.51076e-014
rhumerus -23.6432 -7.12268 -79.2685
rradius 32.1312
rwrist 6.95034
rhand -13.4705 19.2794
rfingers 7.12502
rthumb 12.6396 -10.3182
lclavicle 3.32964e-015 1.51076e-014
lhumerus -39.598 14.067 81.9662
lradius 20.963
lwrist -17.5603
lhand -13.436 24.2467
lfingers 7.12502
lthumb 12.6729 53.8423
rfemur -11.927 2.47079 18.3644
rtibia 73.4166
rfoot 9.32973 -5.21574
rtoes 7.65595
lfemur -14.6269 -1.35178 -25.9329
ltibia 24.1749
lfoot -5.18654 0.0866119
ltoes -1.65407
156
root 0.545 17.5927 -2.116 -1.66354 -4.25178 3.61342
lowerback 6.90398 1.03462 -2.56023
upperback 1.40204 1.20657 0.585334
thorax -2.48791 0.619697 1.93349
lowerneck -16.0616 -2.23501 -9.12775
upperneck 19.8717 -1.78838 4.65434
head 9.01509 -1.02845 2.8883
rclavicle 4.02539e-015 3.97569e-015
rhumerus -23.9462 -7.54875 -79.2447
rradius 32.1347
rwrist 7.52541
rhand -13.1303 18.7615
rfingers 7.12502
rthumb 12.9676 -10.8155
lclavicle 4.02539e-015 3.97569e-015
lhumerus -39.4432 13.6138 82.0365
lradius 21.5446
lwrist -18.0416
lhand -12.8571 25.2902
lfingers 7.12502
lthumb 13.2309 54.8503
rfemur -13.4856 2.02115 17.6018
rtibia 74.5321
rfoot 6.27813 -6.34095
rtoes -0.967223
lfemur -13.7575 -1.17863 -26.6403
ltibia 23.9445
lfoot -5.76267 0.0170904
ltoes -1.89417
157
root 0.550639 17.5989 -1.9379 -1.71153 -4.04416 3.99085
lowerback 6.91613 0.86897 -2.94252
upperback 1.39639 0.957173 0.549793
thorax -2.49265 0.498227 2.13439
lowerneck -15.8915 -2.22091 -9.07479
upperneck 19.8748 -1.75727 4.46709
head 8.98138 -1.03197 2.81854
rclavicle -7.55382e-015 -8.74653e-015
rhumerus -24.2719 -7.89735 -79.147
rradius 32.2524
rwrist 8.4362
rhand -12.9017 18.4145
rfingers 7.12502
rthumb 13.1879 -11.1484
lclavicle -7.55382e-015 -8.74653e-015
lhumerus -39.1699 13.3265 82.0772
lradius 21.7657
lwrist -18.4569
lhand -13.2113 25.0869
lfingers 7.12502
lthumb 12.8896 54.6689
rfemur -15.0263 1.4894 17.0768
rtibia 75.4892
rfoot 5.08801 -7.22678
rtoes -0.83754
lfemur -12.8528 -1.21856 -27.1548
ltibia 23.5957
lfoot -6.17773 -0.050012
ltoes -1.7888
158
root 0.554121 17.5987 -1.76128 -1.69293 -3.91184 4.2135
lowerback 6.76944 0.733516 -3.19976
upperback 1.3999 0.763856 0.563696
thorax -2.39911 0.402271 2.31246
lowerneck -15.7155 -2.19271 -9.18767
upperneck 20.02 -1.70946 4.46832
head 8.99715 -1.0225 2.84585
rclavicle -6.11263e-015 -2.70347e-014
rhumerus -24.512 -8.12482 -79.0984
rradius 32.128
rwrist 8.67669
rhand -13.2477 18.8758
rfingers 7.12502
rthumb 12.8544 -10.7084
lclavicle -6.11263e-015 -2.70347e-014
lhumerus -38.6686 13.2585 81.9992
lradius 21.6606
lwrist -18.9869
lhand -13.7441 24.0135
lfingers 7.12502
lthumb 12.3759 53.6272
rfemur -16.5439 0.977235 16.7889
rtibia 76.2417
rfoot 4.13715 -7.94483
rtoes -1.96201
lfemur -11.9678 -1.31921 -27.4856
ltibia 23.2206
lfoot -6.61111 0.0429699
ltoes -1.68684
159
root 0.556533 17.6031 -1.57736 -1.71178 -3.82668 4.54727
lowerback 6.71142 0.632726 -3.49838
upperback 1.40811 0.608974 0.488775
thorax -2.3504 0.32592 2.41722
lowerneck -15.8009 -2.16858 -9.21365
upperneck 20.2622 -1.67655 4.5196
head 9.09432 -1.00726 2.87568
rclavicle 2.20154e-014 1.66979e-014
rhumerus -24.6512 -8.26403 -79.1301
rradius 31.8344
rwrist 8.49016
rhand -12.9314 18.5894
rfingers 7.12502
rthumb 13.1594 -10.9753
lclavicle 2.20154e-014 1.66979e-014
lhumerus -38.1082 12.739 82.0914
lradius 21.7222
lwrist -18.7378
lhand -13.9871 23.3958
lfingers 7.12502
lthumb 12.1415 53.0234
rfemur -18.0181 0.48834 16.3624
rtibia 76.7555
rfoot 3.35768 -8.41851
rtoes -0.895923
lfemur -11.1133 -1.42643 -27.9561
ltibia 22.9618
lfoot -7.08174 0.25939
ltoes -1.07409
